# xmcd
#
# Track frame offsets: 
#        150
#        11518
#        22663
#        34735
#        46719
#        58805
#        70467
#        82402
#        93990
#        106108
#        119210
#        130784
#        143317
#        155465
#        166846
#        179229
#        191282
#        203805
#        214733
#        226153
#        237737
#        248453
#        261192
#        273757
#        285524
#
# Disc length: 3979 seconds
#
# Revision: 1
# Processed by: cddbd v1.5.2PL0 Copyright (c) Steve Scherf et al.
# Submitted via: ExactAudioCopy v1.0b3
#
DISCID=580f8919
DTITLE=Roy Acuff - King Of The Hillbillies_CD2
DYEAR=2007
DGENRE=Country
TTITLE0=Old Fashioned Love
TTITLE1=My Gal Sal
TTITLE2=Great Speckle Bird No. 2
TTITLE3=Tell Mother I'll Be There
TTITLE4=The Rising Sun
TTITLE5=What Would You Do With Gabriel's Trumpet
TTITLE6=Shout, Oh Lulu
TTITLE7=Good-Bye Brownie
TTITLE8=Blue Ridge Sweetheart
TTITLE9=One Old Shirt
TTITLE10=Bonnie Blue Eyes
TTITLE11=The Automobile Of Life
TTITLE12=Smoky Mountain Rag
TTITLE13=Wabash Blues
TTITLE14=That Beautiful Picture
TTITLE15=The Great Shining Light
TTITLE16=Honky Tonk Mammas
TTITLE17=Haven Of Dreams
TTITLE18=Answer To Sparkling Blue Eyes
TTITLE19=Smoky Mountain Moon
TTITLE20=Fly, Birdie, Fly
TTITLE21=Ida Red
TTITLE22=Beautiful Brown Eyes
TTITLE23=Mother's Prayers Guide Me
TTITLE24=Living On The Mountain, Baby Mine
EXTD=
EXTT0=
EXTT1=
EXTT2=
EXTT3=
EXTT4=
EXTT5=
EXTT6=
EXTT7=
EXTT8=
EXTT9=
EXTT10=
EXTT11=
EXTT12=
EXTT13=
EXTT14=
EXTT15=
EXTT16=
EXTT17=
EXTT18=
EXTT19=
EXTT20=
EXTT21=
EXTT22=
EXTT23=
EXTT24=
PLAYORDER=
